# xmcd
# 
# Track frame offsets:
#     150
#     9875
#     25451
#     48526
#     64640
#     84163
#     99806
#     119738
#     140366
#     153389
#     171953
#     191420
#     207106
#     220916
# 
# Disc length: 3071
# 
# Revision: 1
# Processed by: cddbd v1.5.2PL0 Copyright (c) Steve Scherf et al.
# Submitted via: BonkEnc v1.0.8
# 
DISCID=b50bfd0e
DTITLE=天主教大專同學會 - 新歌傳主愛
DYEAR=2002
DGENRE=Christian
TTITLE0=艋舺天主經
TTITLE1=愛主不渝
TTITLE2=吸引我
TTITLE3=找一個圓
TTITLE4=除非有愛
TTITLE5=愛火、和風、活水
TTITLE6=還是愛祢
TTITLE7=想愛
TTITLE8=我最愛的祢
TTITLE9=有一份愛
TTITLE10=祂的恩典
TTITLE11=我要住在祢聖殿裡
TTITLE12=聖詠137
TTITLE13=天主經
EXTD=
EXTT0=
EXTT1=
EXTT2=
EXTT3=
EXTT4=
EXTT5=
EXTT6=
EXTT7=
EXTT8=
EXTT9=
EXTT10=
EXTT11=
EXTT12=
EXTT13=
PLAYORDER=
